<?xml version="1.0" standalone="no"?>
<!DOCTYPE svg PUBLIC "-//W3C//DTD SVG 20010904//EN"
 "http://www.w3.org/TR/2001/REC-SVG-20010904/DTD/svg10.dtd">
<svg version="1.0" xmlns="http://www.w3.org/2000/svg"
 width="160.000000pt" height="160.000000pt" viewBox="0 0 160.000000 160.000000"
 preserveAspectRatio="xMidYMid meet">
<metadata>
Created by potrace 1.11, written by Peter Selinger 2001-2013
</metadata>
<g transform="translate(0.000000,160.000000) scale(0.100000,-0.100000)"
fill="#000000" stroke="none">
<path d="M1059 1573 c-23 -9 -52 -38 -89 -89 -30 -42 -63 -82 -72 -88 -10 -7
-38 -11 -65 -9 -129 10 -270 5 -328 -11 -205 -60 -380 -225 -445 -421 -27 -81
-34 -120 -42 -230 -3 -30 15 -147 28 -194 53 -187 201 -355 386 -440 85 -39
133 -53 238 -66 267 -36 542 112 664 355 16 30 60 150 65 173 0 4 1 8 2 10 3
12 10 73 12 120 2 32 10 63 17 70 7 7 10 8 7 2 -3 -6 8 -10 24 -10 16 0 29 4
29 8 0 5 4 6 9 3 13 -9 37 26 35 52 -1 18 1 20 13 11 11 -10 12 -8 7 6 -5 12
-4 16 3 12 6 -4 13 5 15 23 3 22 0 30 -11 31 -14 0 -14 1 -1 7 8 4 16 13 18
21 3 12 1 12 -14 0 -16 -12 -17 -12 -11 3 3 10 1 20 -5 24 -6 4 -8 3 -5 -2 3
-6 1 -16 -4 -24 -7 -11 -9 -6 -7 20 1 19 7 42 12 50 10 13 9 13 -6 1 -10 -7
-15 -18 -11 -25 4 -8 2 -8 -7 1 -7 6 -9 17 -4 24 4 8 9 20 10 29 0 8 4 33 8
55 32 175 26 276 -21 327 -27 30 -91 60 -132 61 -22 1 -53 14 -81 33 -107 74
-186 99 -241 77z m432 -268 c0 -11 2 -28 4 -37 2 -10 -1 -18 -6 -18 -5 0 -9 7
-9 16 0 22 -41 104 -52 104 -5 0 -6 5 -2 12 10 15 64 -49 65 -77z m-5 -127
c-9 -81 -26 -148 -38 -148 -5 0 -6 -4 -3 -10 3 -6 -1 -7 -10 -3 -13 5 -14 7
-3 14 7 5 11 9 8 10 -3 0 -15 2 -27 5 -13 2 -23 -1 -23 -7 0 -5 6 -7 13 -3 9
5 9 4 0 -6 -10 -11 -10 -17 0 -28 11 -13 9 -14 -10 -1 -16 9 -21 20 -17 34 4
16 3 17 -5 5 -7 -10 -13 -12 -21 -4 -7 7 10 34 55 87 35 43 67 87 70 97 12 39
17 19 11 -42z m33 -405 c-6 -7 -15 -10 -20 -7 -13 8 -3 21 15 21 12 0 13 -4 5
-14z"/>
</g>
</svg>
